<?xml version="1.0" encoding="UTF-8" standalone="no"?>
<!-- Created with Inkscape (http://www.inkscape.org/) -->
<!-- By Conor O'Brien (https://conorobrien-foxx.github.io/). This image is marked CC0 1.0. To view a copy of this mark, visit https://creativecommons.org/publicdomain/zero/1.0/ -->

<svg
   width="512"
   height="512"
   viewBox="0 0 512 512"
   version="1.1"
   id="svg1"
   xmlns="http://www.w3.org/2000/svg"
   xmlns:svg="http://www.w3.org/2000/svg">
  <defs
     id="defs1" />
  <g
     id="layer1">
    <circle
       style="fill:none;stroke:#000000;stroke-width:32;stroke-linecap:round;stroke-linejoin:miter"
       id="path9"
       cx="208"
       cy="208"
       r="192" />
    <path
       style="fill:none;stroke:#000000;stroke-width:32;stroke-linecap:round;stroke-linejoin:miter"
       d="M 496,496 350,350"
       id="path10" />
    <path
       style="fill:none;stroke:#000000;stroke-width:32;stroke-linecap:round;stroke-linejoin:miter"
       id="path16"
       d="m 136.34996,158.9485 c 5.82963,-5.62154 13.18581,-9.29711 20.31161,-12.97528 6.44219,-3.14272 13.0976,-5.89044 20.0217,-7.77985 3.37249,-0.92027 4.47003,-1.06324 7.80043,-1.69178 3.03372,-0.41301 6.09269,-0.55071 9.08861,0.20101 0.83449,0.20938 1.65162,0.4948 2.44394,0.83013 0.72822,0.30819 1.40299,0.72989 2.10448,1.09484 -3.26691,-1.74534 -6.53383,-3.49069 -9.80075,-5.23604 2.92507,2.66507 5.1254,5.98718 6.42426,9.72898 0.81983,2.3618 0.93198,3.46716 1.38493,5.90304 0.85966,6.77577 -0.91758,13.40988 -2.90066,19.82745 -4.60402,12.658 -11.46716,24.27886 -18.066,35.96151 -6.32624,11.57067 -12.89399,23.06476 -18.07944,35.21175 -0.85336,1.99901 -1.61098,4.03754 -2.41647,6.05631 -2.40376,6.30935 -4.29559,12.85166 -5.23441,19.54926 -0.25068,1.78835 -0.62431,5.96557 -0.80232,7.86054 -0.37543,4.41327 -0.69496,8.84931 -0.39927,13.27614 0.27953,2.29472 1.0151,3.89686 3.09663,5.101 4.63846,2.68329 9.33877,5.25823 14.00816,7.88734 4.60732,1.68702 9.6305,2.23122 14.5177,1.84173 1.30437,-0.10395 2.59363,-0.349 3.89045,-0.5235 7.1961,-1.15986 14.05903,-3.81218 20.16798,-7.79836 1.73343,-1.13109 3.37418,-2.39824 5.06127,-3.59735 2.03194,-1.72765 4.09225,-3.42248 6.09582,-5.18295 4.72056,-4.1478 9.24413,-8.28051 13.51952,-12.90034 4.60345,-4.9743 9.95764,-11.62029 14.02018,-16.99911 2.30372,-3.05011 4.48387,-6.19162 6.7258,-9.28743 8.03639,-11.06508 15.33661,-22.72832 21.19215,-35.10556 1.11442,-2.35563 6.32146,-14.57074 7.47258,-17.25841 4.98794,-12.20864 8.6663,-24.87018 12.09711,-37.5836 0.39336,-1.44153 0.77353,-2.88672 1.18007,-4.32459 0.32198,-1.1388 0.60174,-2.29253 1.00538,-3.40502 0.21823,-0.60148 0.4587,-1.21592 0.85381,-1.7192 0.0856,-0.10909 0.52445,0.17972 0.39619,0.12697 -14.5714,-5.99295 -12.81537,-10.14828 -13.63083,-1.11153 -2.02165,14.56924 -4.42921,29.08845 -6.02547,43.71628 -0.38758,3.55177 -0.67672,7.11359 -1.01508,10.67039 -0.48339,7.29232 -1.02787,13.55994 -1.01517,20.85868 0.0101,5.82432 0.49141,13.6416 1.07425,19.47762 0.69785,6.98765 1.16148,9.12413 2.28385,15.83167 1.73028,6.64143 3.84044,13.17873 6.30449,19.58333 0.89547,2.3275 2.34006,5.85316 3.48734,8.17486 0.49621,1.00417 1.07016,1.96801 1.60525,2.95201 2.30352,3.77456 5.2019,7.15122 8.35701,10.23554 0.8064,0.81099 1.72702,1.48097 2.66329,2.12927 0,0 13.65376,5.33849 13.65376,5.33849 v 0 c -1.00849,-0.6421 -2.07963,-1.18835 -2.96918,-2.00128 -3.47886,-3.04281 -6.69445,-6.41008 -9.33902,-10.21265 -0.63818,-0.99755 -1.31065,-1.97397 -1.91455,-2.99264 -2.6626,-4.4913 -4.86452,-9.29268 -6.80084,-14.13495 -0.87571,-2.18995 -1.74097,-4.38726 -2.47464,-6.6288 -0.79405,-2.42603 -1.40332,-4.9087 -2.10498,-7.36304 -1.55526,-6.90232 -2.15129,-8.88279 -3.12235,-16.11568 -1.79745,-13.38816 -1.83849,-26.96477 -0.64004,-40.40618 0.92331,-8.56314 1.23143,-12.3154 2.52124,-20.78275 1.2375,-8.12398 1.82546,-10.86458 3.60253,-18.71941 1.79206,-7.92115 1.39697,-6.18683 3.50889,-13.35577 3.16382,-8.51557 2.56903,-3.17026 -11.17845,-12.44288 -0.13428,-0.0906 0.3004,0.21667 0.30464,0.3786 0.0187,0.71306 -0.1317,1.42133 -0.23903,2.12652 -0.18326,1.20411 -0.40218,2.40278 -0.63236,3.59882 -0.28616,1.48689 -0.61098,2.96608 -0.91647,4.44912 -3.01822,12.88814 -5.72308,25.89134 -10.47233,38.29173 -1.06277,2.80253 -2.05163,5.63421 -3.1883,8.40759 -6.41106,15.64241 -14.81171,30.37443 -24.36637,44.29888 -2.25137,3.0712 -4.41412,6.20937 -6.7541,9.21359 -5.12014,6.57355 -8.76388,10.63404 -14.61443,16.49638 -4.71263,4.72213 -8.74253,8.40183 -14.05408,12.41171 -2.18139,1.64682 -4.49974,3.10391 -6.74961,4.65587 -3.89871,2.29492 -6.02729,3.68539 -9.99939,5.55541 -5.00471,2.35615 -10.32773,3.94119 -15.79884,4.74117 -1.29495,0.11377 -2.58559,0.29938 -3.88485,0.34133 -5.05971,0.16335 -10.1728,-0.72469 -14.78368,-2.82527 3.50949,2.0664 7.0331,4.109 10.52848,6.19918 0.4154,0.24841 -0.8709,-0.42512 -1.28676,-0.67275 -0.92291,-0.54956 -1.45557,-1.1673 -1.87657,-2.14975 -0.15064,-0.3515 -0.26475,-0.71756 -0.39712,-1.07634 -0.72786,-4.47076 -0.68174,-9.00844 -0.64649,-13.52632 0.0459,-1.24823 0.0597,-2.49805 0.13756,-3.74468 0.50848,-8.13895 2.02765,-16.19173 4.59027,-23.93671 2.00482,-5.57375 2.44053,-7.04477 4.82757,-12.58512 4.29407,-9.96658 9.42997,-19.54733 14.85208,-28.93854 4.03688,-7.0853 8.11199,-14.1435 12.38136,-21.09241 1.1985,-1.95069 2.50088,-3.83804 3.65002,-5.81821 1.89162,-3.25961 2.49174,-4.89313 3.94087,-8.24405 0.44849,-1.21759 0.95562,-2.41516 1.34549,-3.65277 0.34749,-1.10306 0.5962,-2.23513 0.86376,-3.36026 1.03495,-4.35203 1.74787,-8.76016 1.33537,-13.24918 -0.37778,-2.17253 -0.63402,-4.00347 -1.25575,-6.12846 -1.13877,-3.89221 -3.30069,-7.36123 -6.02135,-10.34437 -4.68443,-2.88895 -9.30957,-5.87632 -14.05328,-8.66685 -0.66717,-0.39247 -1.41595,-0.63432 -2.15411,-0.86729 -3.77273,-1.19068 -7.69411,-0.95277 -11.52344,-0.18082 -1.16994,0.29381 -2.34843,0.55547 -3.50982,0.88145 -8.18655,2.2978 -16.02808,5.69882 -23.65334,9.4226 -7.6266,3.7007 -15.20199,7.52352 -22.44209,11.94605 z" />
  </g>
</svg>
