<svg width="2300" height="2300" xmlns="http://www.w3.org/2000/svg" preserveAspectRatio="xMidYMid meet">

 <g>
  <title>background</title>
  <rect fill="none" id="canvas_background" height="2302" width="2302" y="-1" x="-1"/>
 </g>
 <g>
  <title>Layer 1</title>
  <g fill="#fefeff" id="layer101">
   <path id="svg_1" d="m606.30072,1214.133545c-3,-7 -4,-132 -3,-278l3,-265l125,-3c113,-2 129,0 170,20c103,52 130.999939,180 58,264c-46,52 -77,64 -162,64l-75,0l-3,103l-3,102l-53,3c-36,2 -54,-1 -57,-10zm250,-322c23,-17 24,-71 2,-93c-10,-11 -39,-18 -77,-21l-60,-4l0,66l0,66l58,0c33,0 66,-6 77,-14z"/>
   <path id="svg_2" d="m1178.300659,1216.133545c-46,-14 -98,-60 -118,-104c-15,-33 -19,-66 -19,-166c0,-111 3,-131 23,-170c13,-26 40,-57 65,-75c39,-27 52,-30 117,-30c65,0 78,3 116,30c46,32 96,114 86,140c-5,11 -21,15 -61,15c-50,0 -56,-2 -68,-27c-19,-40 -60,-57 -102,-43c-46,15 -56,44 -56,160c0,116 10,145 56,160c42,14 83,-3 102,-43c13,-26 17,-28 70,-25c56,3 57,3 55,33c-3,41 -51,104 -97,128c-44,23 -126,31 -169,17z"/>
   <path id="svg_3" d="m1638.300659,1216.133545c-46,-14 -98,-60 -118,-104c-15,-33 -19,-66 -19,-166c0,-111 3,-131 23,-170c58,-116 223,-145 324,-57c38,33 79,110 68,127c-3,6 -30,10 -60,10c-50,0 -54,-2 -73,-34c-35,-59 -130,-56 -151,6c-14,41 -14,210 0,242c14,30 59,48 99,40c34,-7 55,-29 64,-66c6,-26 5,-27 -41,-30l-48,-3l0,-50l0,-50l105,0l105,0l3,62c4,89 -12,140 -62,189c-57,58 -140,78 -219,54z"/>
  </g>
  <g fill="#000000" id="layer102">
   <path id="svg_4" d="m1394.055908,2240.647217c-4,-3 -7,-89 -7,-190l0,-183.000122l-403,0c-458,0 -462,-1 -546,-76c-27,-25 -61,-68 -75,-96l-26,-52l0,-690l0,-691l24,-51c30,-65 85,-120 150,-150l51,-24l690,0l690,0l51,24c65,30 120,85 150,150l24,51l0,691l0,690l-26,52c-32,64 -109,135 -171,156c-26,9 -76,16 -112,16l-66,0l-190,190.000122c-104,105 -192,190 -196,190c-3,0 -9,-3 -12,-7zm-685,-1125.000122l3,-103l92,-5c103,-6 135,-21 165,-81c23,-44 22,-93 -2,-147c-29,-65 -74,-82 -222,-82l-118,0l0,260l0,260l40,0l39,0l3,-102zm640,78c37,-18 69,-58 83,-103c6,-21 3,-23 -35,-23c-34,0 -46,6 -70,34c-37,42 -69,51 -114,32c-53,-22 -66,-58 -66,-176c0,-118 13,-154 66,-176c45,-19 77,-10 114,32c24,28 36,34 70,34c22,0 40,-3 40,-7c0,-26 -47,-96 -78,-115c-54,-33 -161,-33 -216,1c-61,38 -76,83 -76,228c0,170 25,224 118,254c40,12 122,5 164,-15zm433,13c81,-23 125,-96 125,-211l0,-58l-90,0l-90,0l0,34c0,34 1,35 48,38l47,3l-3,35c-6,70 -80,114 -147,86c-51,-22 -65,-59 -65,-171c0,-118 15,-160 64,-180c48,-20 92,-9 124,31c23,29 33,34 70,34l42,0l-15,-37c-32,-78 -113,-121 -208,-109c-65,7 -115,40 -138,90c-25,56 -27,265 -3,326c33,81 132,118 239,89z"/>
   <path id="svg_5" d="m711.055908,924.647095c-3,-8 -4,-45 -2,-83l3,-69l67,0c60,0 71,3 94,27c37,36 37,83 0,115c-22,19 -38,23 -92,23c-45,0 -66,-4 -70,-13z"/>
  </g>
 </g>
</svg>